<svg width="184" height="88">
  <symbol version="1.2" xmlns="http://www.w3.org/2000/svg" viewBox="0 0 184 88" id="logo-far-cry-ai">
    <path fill="#fff" d="m14.3 74.9q0 2.3-1 4.1l-8.5 0.5h3.4q1.5 0 4.4 0h0.5q-1.2 1.8-3.4 2.5-1.8 0.5-5.7 0.5v5.7h-4.3l-0.5-0.7v-5.4l0.1-0.3-0.1-0.2v-7.2l1.2-1.1-0.1 0.2 0.9 0.3v-0.3h2.8v4.3h-0.4v0.1l0.2 0.4 0.5 0.2 0.2-0.3q2.4 0 3.3-0.2 1.4-0.4 1.7-1.8 0.2-1.1-0.2-1.8l0.1-0.1-0.1-0.3-0.3-0.2h0.3 0.1l-0.2-0.2-0.9-0.6-0.6 0.4q-0.8-0.1-3.7-0.1v0.2l-2.8-0.2-0.2-0.2 0.5-0.3-1.9-0.3 0.3-0.2-0.7-0.2v-2.1h0.1v-1.1q1 0 1.7-0.2h5q3.4 0 4.1 0.2 1.4 0.4 2.5 1.4-0.4 0.1-0.6 0.3h0.8q1.5 1.6 1.5 4.3zm-14.6-6.2q-0.3 0.1-0.5 0.1v-0.1zm-0.2 3.6q0 0.1 0 0.3 0 0.1 0 0.2h0.2l-0.4 0.4-0.1-1 0.3 0.1zm-0.1 1.2v0.2l-0.1-0.1 0.1-0.1zm-0.1 0.3l0.5-0.6v0.1q0 0.5-0.5 0.5zm0.2-0.8h0.2q0 0.2-0.1 0.2-0.1 0-0.1 0zm0.3-0.3l-0.1-0.1 0.2 0.1zm1.3 0l-0.5 0.2 0.2 0.1v0.3h-0.1l-0.2-0.1h-0.4l0.2-0.6 0.4 0.1h0.1 0.3zm2.7 5.2q0.1 0 0.2 0l0.1 0.1 0.1 0.2q-0.3 0-0.3 0-0.1 0-0.1-0.3zm0.2-0.2v0.2l-0.1-0.1zm4.4-4.6q0.3 0 0.3 0.2h-0.5q0-0.2 0.2-0.2zm4.7 6h0.1v0.2l-1-0.2h0.9zm14 5.1l-2.1 0.1q0.4 0 0.8 0 1 0 1.3 0.2v0.2q-0.1 0-0.1 0 0.1 0 0.1 0v1.5l-1.3 0.1 0.8 0.2q0 0.1-0.1 0.2 0 0.1 0 0.2 0.5 0 0.6 0.1v0.3q-1.1 0.1-1.2 0.8h-10.4v-0.3l0.3-0.2v-0.7q0-0.4-0.3-0.4v-13.8l1.5-0.3-1.5 0.2v-3.3h0.4l-0.2-0.2q0.2 0 0.2-0.1 0 0 0-0.3 0.1 0 0.2-0.1h4.2v1.1l-3.9 0.4h3.9v12.4q-0.3 0.2-0.4 0.5-2.4 0.6-2.4 0.7 0 0.1 0.6 0.1l1.8-0.5q0 0.2 0.1 0.2l0.1-0.2v0.6h0.5q0-0.1 0.1-0.3h6.4zm-2.1 0.2q-0.4 0-0.9 0l-1 0.1zm-9.1-15.3q0 0 0.1 0-0.1 0-0.1 0zm30.2 10.6v0.8l0.1 0.1v0.2l-0.1 0.1v2.1l0.1 0.1v5l-5.2 0.1-0.1-3.8 0.1-0.2-0.1-0.1v-0.6h-4.4l-0.1 0.4h-0.2l-5.6 0.1 5.6 0.1v0.2l-0.1 0.1-0.3 0.1-0.2-0.2h-0.1v0.2h0.1l-0.3 0.1h0.4l0.2 0.1v0.2l-0.3 0.3-0.1 0.2-0.3 0.1-0.1-0.2v0.3h0.3v0.2l-1.1 2.3h-3.7v-0.2-0.1l-0.1-0.1-0.2-0.1h-0.2l-0.1 0.1-0.1 0.1 0.1 0.1v0.2l-0.1 0.1h-0.2v-0.3-0.1h-0.1v-0.1l-0.1 0.2-0.1 0.1-0.1 0.1h-0.8l-0.1-0.2-0.1 0.2h-0.2l0.1-0.2 1.6-3 0.4 0.5-0.3-0.6 1.1-2 0.2-0.2v-0.2l0.7-1.3v-0.2l0.3-0.4 0.1-0.2h0.2l0.1-0.6 0.2-0.4 0.7-0.7-0.4 0.4 0.9-1.9h0.2l0.1 0.5h0.2l-0.3 0.3 0.5-0.2-0.1-0.3 0.2-0.2 0.1-0.1h0.3l-0.2-0.2-0.3 0.3-0.2-0.1 0.1-0.2 0.3-0.3-0.5-0.1 1.1-2.1 0.2-0.2v-0.3l0.4-0.1 0.3-0.1h-0.3v-0.4l2.5-4.6h2.4l0.2 0.6v-0.6h4.9v5l-0.2 0.1-0.7 0.1v0.1h-0.2l-0.1-0.1h-0.4l-0.4-0.3-0.5-0.1-0.4-0.3-0.1-0.1 0.1 0.3h-0.2l-0.2-0.2v-0.2h-0.2l-0.1-0.5-0.4-0.1 0.1 0.3v0.2l-0.3-0.1-0.2 0.1v0.2h-0.3l0.1-0.2 0.1-0.1h-0.2-0.2v-0.2h-0.2v0.3l0.2 0.1v0.1 0.1h-0.3v0.2l-0.2-0.2-0.1 0.2v0.1l-0.1 0.2-0.1 0.1-0.1-0.3v0.5l-0.2-0.1v-0.2h-0.1v0.3h-0.2l0.1 0.2-0.4 0.1-0.1-0.2-0.1 0.4-0.1-0.1v0.3l0.1 0.1v0.2l-0.2 0.1 0.3 0.2v0.9l-0.1 0.4-0.2 0.1 0.1 0.2-0.2 0.1-0.1 0.1v0.1h0.2l0.1 0.5 0.2 0.2h0.1v0.1l0.1 0.3 0.1 0.2 0.1 0.3-0.1 0.1-0.2 0.1-0.2 0.1h-0.1l-0.1-0.2-0.1 0.3-0.1 0.2-0.1 0.2-0.2 0.1-0.2 0.2-0.2 0.1-0.4 0.1 0.3 0.1h0.2l0.2-0.1v-0.2l0.1-0.1h0.3l0.1-0.1h0.2l0.1 0.5v-0.7h0.2l0.1-0.2 0.4-0.1v-0.2l0.4-0.1 0.1-0.1 0.4-0.1 0.1 0.4 0.1-0.6h0.2l0.2 0.3v0.5l-0.2 0.1v0.2l0.3-0.1-0.1-0.8v-0.4l0.3-0.3h0.3l0.2-0.2v-0.3l0.4-0.2 0.2-0.1h0.2l0.3 0.1 0.1 0.2 0.2 0.6v-0.5l0.1-0.2 0.2-0.1 0.1-0.2 0.3-0.3h1.5l0.3 0.3v2.1 0.2 0.2zm-11.7-1.2v-0.1l-0.4 0.4v0.2zm2.8 1.6h-0.5v0.2l-0.3-0.1 0.1 0.3h0.3zm3.2-6.3h0.2l-0.1 0.1-0.1 0.1zm0.4-0.3l0.1 0.2-0.1 0.1h-0.2v-0.3zm0.4 7.1l-0.2 0.1-0.2 0.4h0.2zm0-7.2l-0.2 0.1v-0.1q0.1-0.1 0.2-0.1 0 0 0.1 0.1zm-0.2 0.5l0.1-0.1v-0.1h0.2l0.1-0.1v0.3 0.1h-0.2l-0.1 0.1zm0.5-0.2l0.1-0.1v-0.1-0.3h0.1l0.1 0.1v0.1h0.3l-0.1 0.1-0.2 0.1-0.2 0.2zm0.2 3.3l-0.1-0.2 0.2-0.1 0.1-0.2h0.1v-0.2h0.3v-0.2h0.4v-0.1l0.2 0.1v-0.3l0.3-0.2 0.5-0.1v0.2h0.3v0.5l-0.1 0.2h-0.4l-0.1 0.2-0.2 0.1h-0.3v0.1l-0.2 0.1h-0.4l-0.1 0.2-0.1 0.1-0.3-0.1zm0.1-3.9l-0.1-0.1v-0.1h0.2zm0.5 0l-0.1 0.2-0.2-0.1 0.1-0.3 0.2-0.1 0.1 0.1v0.2zm1.9 10.2l-0.1-0.1-0.1 0.1 0.1 0.2zm15.4-5.4l-0.3-0.6 0.3 0.7q-0.1 0.1-0.1 0.2l-0.5 0.9-0.1 4.1h-0.2v0.1h-0.3l-0.2 0.1-0.2 0.1h-0.5l-0.1 0.1-0.1 0.1-0.3-0.1h-0.1l-0.1 0.1-3 0.1 3.5 0.1h0.1 0.3l-0.1 0.2-0.1 0.1-0.1 0.1h-0.1l-0.1-0.1v0.1 0.1h-0.2 0.3 0.3v0.1 0.1h0.1l0.1-0.1h0.9v0.2q-0.1 0-0.7 0h-0.1l-0.1 0.1v0.1l-0.1 0.1-0.1-0.1-0.8 0.1 0.7 0.1v0.1 0.1h0.2v-0.1h0.5l0.1 0.1 0.1-0.1h0.2l0.4 0.3v2.2l-0.1 0.1-3.4 0.1v-0.2h-0.6l-0.4-0.4h-0.2l-0.1-0.3-0.3 0.1-0.1-0.2v-0.5l-0.1-0.1v-5.2-0.2l0.4-0.2 1 0.5 0.8 0.1 0.2 0.5 1.2 1-1.1-1-0.3-0.6h-0.5l-0.1-0.2-0.3 0.1-0.9-0.5-0.4 0.1v-1.7l-5.7-10.6h6l2.5 6.1 2.4-6.1h6zm22.6 7.6l-6.7 0.1 6.7 0.2v0.7q0 0.2-0.2 0.4l-0.1 0.3q0.2 0.1 0.3 0.2v0.4q-5.6 0-7.2 0l-0.8-0.1q-1.3-0.2-1.8-0.4-2.9-0.8-4.7-3.5-1.8-2.5-1.8-5.7 0-2.4 1.2-4.6 2.6-5.2 9.6-5.2-0.3 0 1 0.1 0.6 0 0.8 0 1.3 0 3.6 0v0.6l-0.4 0.5-0.4-0.3-0.4 0.2 1.2 0.5-0.4 0.6h-1.4l1.6 0.3 0.2 0.4-2.1 0.1-0.6-0.4-0.2 0.5 2.9 0.5v0.7h-4.6q-1.4 0-2.7 0.2-2 0.3-3.2 1.8-1.2 1.4-1.2 3.4v0.3q0 0.2 0 0.3-0.1 0.1-1.5 0.2v0.2q0.5 0 0.9 0 0.7 0.1 0.7 0.4-0.1 0.1-0.8 0.1-0.8 0-2.5-0.1l0.1 0.2q2.3 0.6 3.4 0.9 0.5 2 2.4 2.8 1.3 0.5 3.8 0.5 1.3-0.1 1.5-0.1v-4.5h3.4l0.2 0.2 0.2 0.4zm17.7 2.3h-5.7l-5.6-8.6v7.7h-0.2l-0.2 0.1-0.2 0.1-0.1 0.2-0.2 0.1-0.2 0.2h-0.2v-0.3l-0.1 0.1-0.1 0.3h-0.2l-0.1 0.1h-3.4v-11.4h0.5l0.5 0.4-0.3-0.4 0.7-0.1-1.3-0.1-0.1-0.2 0.3-0.1-0.3-0.1-0.1-0.2 0.4-0.1 0.3 0.3 1 0.1-0.8-0.1 0.3-0.2 0.9-0.1 0.6 0.1-0.4-0.1 0.8-0.1-0.9-0.1 0.1-0.3-0.3 0.3h-0.2v-0.3l-0.2 0.3-0.6-0.1v-0.2l0.3-0.1 0.7-0.1h3.2l-3-0.1-1.1-0.2v-0.2l-0.3 0.1h-0.3l-0.3-0.2v-0.3l-0.1-0.1v-5.4q6.2 0 6.7 0 0 0 0 0.4v-0.4l1.9-0.1h0.3l0.1 0.1h0.4v0.1h0.2l0.1 0.1 0.1-0.1q0 0 0.1 0.1l-0.1 0.1h0.3v0.2l-1.4 0.1h0.7l0.8-0.1h1.1l0.1 0.1-0.1 0.3h-0.3v0.2l-1.1 0.2h2.3q0.8 0.2 1.6 1.6 0.8 1.4 0.8 2.9 0 1.9-0.9 3.2-0.9 1.3-2.4 1.9zm-15.5-6.6l-0.1-0.4v0.4zm0.4 0.7l-0.2-0.3v0.5l0.1 0.2 0.1-0.1zm2.1-12.2l-0.1-0.4-0.3-0.3 0.1 0.4zm5.9 5.1q-0.1-1.5-1.7-1.5h-2.5v3.1h2.5q1.6 0 1.7-1.6zm23.8 2.1q0 0.4 0 0.8l-0.6 0.2 0.5 0.1q0 0.4-0.1 1.4 0 1.1-0.2 1.5-0.2 1.1-0.6 2.1l-7 0.6q5.6-0.1 6.8-0.3-0.1 0.2-0.2 0.4h-1l-1.5 0.3h0.8l1.7-0.2q-1.5 2.9-4.9 3.7l-0.6-0.3q-0.5 0-1.3 0.6-0.6 0.1-1.2 0-3.1-0.5-4.7-2l-0.2-0.9-0.6-0.1q-1.3-1.7-1.9-5.2-0.1-1-0.1-2 0-1.7 0.5-3.7l0.6-0.2-0.3-0.8q1.3-3.4 5.3-4.3 0.3-0.1 1.3-0.1 0.9-0.1 1.1-0.2 1.3 0.2 1.9 0.2l0.8 0.4 0.2 0.4h0.5v-0.3h-0.4l0.4-0.1 3.1 1.9q1.9 2.3 1.9 6.1zm-3.2-1.7l-0.7-0.6 0.4-0.3-0.1-0.4q0-0.5-1.6-0.5l0.6-0.6-0.6-0.4q-0.1 0-0.5 0.5-0.4 0.5-0.5 0.6-0.2-0.1-0.3-0.2v-0.1q-0.1 0-0.1 0.1-0.7-0.4-2.3-0.4l-1 0.3q-2.5 1-2.4 5.4-2.4 0.2-2.9 0.4l2.9-0.3q0.2 2 0.9 3.3 1 1.6 2.8 1.6 3.9 0 3.9-5.8 0-1.3-0.3-2.3l0.6-0.4 0.7 0.5zm-2.4-2q0 0.1 0.1 0.3 0.1 0.2 0.1 0.3h-0.3l-0.1-0.2 0.1-0.2v-0.3zm-0.2 0.6v0.1zm0.2 0v0.2h-0.1l-0.1-0.2zm0.1-0.8h-0.1l0.1-0.1v-0.1zm0.2 0.4l-0.1-0.1 0.1-0.2h0.2zm0.7 0.4q0 0.2-0.2 0.4-0.2 0.2-0.2 0.3l0.3 0.2-0.3 0.4-0.3-0.1q0-0.2-0.1-0.5-0.1-0.3-0.1-0.4 0-0.2 0.2-0.2 0.2 0 0.2-0.1h0.4zm-0.8 0h0.2-0.2zm0-0.7v-0.1l0.1-0.2h0.1q0 0.3-0.2 0.3zm0.2 0.7v0.1zm0.4 0.5l-0.1 0.2h-0.1v-0.2zm0.5 0.2h-0.4q0-0.5 0.4-0.6h-0.3l0.6-0.1v0.5zm0.2 0q0 0.1 0.2 0.4 0.2 0.2 0.2 0.2v0.3q-0.1 0-0.4-0.3-0.2-0.4-0.4-0.4v-0.1l0.2-0.1zm6.2-1.4q-0.3 0.2-0.4 0.2v-0.6q0.2-0.2 0.4-0.2 0 0.2 0.2 0.2 0 0.1-0.2 0.4zm14.4 2.5l-3 0.3h3v3.7q-0.1 0.5-0.1 1.1 0 1 0 1.5 0 0.9-0.2 1.5-0.5 1.3-1.5 2.1l-0.9 0.6q-0.4 0.2-0.7 0.2l-0.6-0.2q-0.2-0.3-0.6-0.3l0.6 0.3q0.3 0.4 0.4 0.6-1.9 0.8-3.7 0.8-1.4 0-2.7-0.4-3.2-1-4.2-3.6-0.4-1-0.5-2.7 0-0.8 0-3.2v-4.5l0.8-0.6 2.8-0.1-3.6-0.4v-4h3.7q-0.1 0.2-0.1 0.4l1 0.2v9q0 2.5 0.1 3.3l-0.4 0.6q0 0 0.1 0.3 0.1 0.2 0.1 0.3 0 0.3-0.5 0.3l0.5 0.3 0.4-0.5 0.1 0.1v0.8h0.3l0.2-0.3 0.1 0.3 0.5-0.3q0.9 0.3 1.8 0.2 1.6-0.3 2-1.8 0.2-0.8 0.2-3.7v-9.5h4.6zm-14.1-2.8v-0.1l0.1 0.1h-0.2v-0.1zm0.1-0.1v-0.1h-0.1l0.1-0.1 0.2 0.1zm3.8 9.1l0.2-0.4q0 0 0.1 0l-0.1 0.5h0.1q0 0 0 0l0.1 0.1h-0.2zm0.1 0.8l0.2-0.2v-0.1q0.1 0 0.1 0.1 0 0.1-0.1 0.2zm0.4-0.1v-0.1h0.1v-0.2l0.2 0.1v0.1l-0.1 0.1zm0.1 0.7l0.2-0.6h0.1l-0.1-0.2 0.6 0.6q-0.1-0.1-0.1-0.1-0.2 0-0.6 0.3h-0.1zm0.2-0.6zm21.9 5.1l-0.1-0.3-0.2 0.1-1.7-3.4h1.7l-1.7-0.1-2.3-4.6q-0.7-1.3-1-1.9h0.6l0.1-0.7q-0.6 0-0.6-0.4 0-0.1 0.1-0.4 0.1-0.3 0.1-0.4l-0.8-0.5-0.2 1q-0.2-2.2-0.7-2.2h-0.1l0.2 0.4-2-1.6 2.1 2.3h-0.2l0.1 0.4-0.7 0.1q0 0.2 1.1 2.2 0.1 2.3 0.1 3.5l-0.5 0.2 0.5 1.4q0 3.1 0 4.7l-0.4 0.5h-4.1v-0.7q0.5-0.2 0.5-1l-0.2 0.2q-0.2-0.5-0.3-0.8v-8.7h0.1l-0.1-0.9 0.1 0.7 0.4-0.5-0.5-1.2v-4.7h0.1l-0.1-0.7v-1.2h6.1l1.4 2.9-6.3 0.1q4.5 0 6.3 0l2.2 4.4q1.4 3 1.6 3.9h0.1q-0.2-1.3-0.2-3.6-0.1-2 0-3.8 0-2.7 0-3.8h4.5v1.6-0.1h-0.2q0 0.1-0.2 0.1l-2.7 0.3q2.3 0 2.7-0.3h0.4l-0.4 0.4 0.4-0.1v3.1h-3.6l3.6 0.3v12.9l-0.4 0.3-0.1 0.2-0.3-0.5-0.6 0.3 0.6 0.2-1.9 0.3v0.1zm-6.3-11.4l0.1 0.2v0.1zm0.3-0.3v0.1zm0.7 0.8l-0.3 0.1-0.3-0.6h0.4zm8.9 11.1q-3.5 0-3.6-0.2h2.3q0.2 0 0.5-0.1 0.4-0.1 0.6-0.1zm1.2-0.1l0.2 0.1q-0.3 0.1-0.5 0.1-0.8 0-0.9-0.3l0.2-0.1v-0.1l0.7-0.1 0.1 0.1q0 0 0.2-0.3 0.3-0.4 0.4-0.4v0.1l-0.4 0.8zm0.3-0.3v0.4l-0.2-0.2 0.2-0.2zm17.8-9.3q0 3.4-1.2 5.5-0.2 0.2-0.7 0.4l-0.5 0.7-0.2 0.5-0.4 0.1q-0.1 0.4-0.1 0.6-2.6 1.9-5.1 1.9h-5.6l-0.3-0.3 0.2-0.4-0.6-0.2-0.6 0.5h-0.4v-0.8l-0.3-0.6v-17.6q2.6-0.2 7.3-0.1 2.3 0.1 4.6 1.4l-7 0.2q3.3 0 5.1 0 1.8 0 2.1 0 3.7 2.5 3.7 8.2zm-5.1 3.5q0.9-1.4 1-3.5-0.1-2.2-1-3.6-1.1-1.6-3.2-1.6h-2l-0.8-0.1-0.3-1.4v2l-0.6-0.7-0.3 0.4-0.6-0.7 0.7 1.2h-1.6l2.6 0.2-0.5 0.8h-0.7l1.2 0.4v5.2l-4 0.4q1.9-0.1 2.9-0.1 1 0 1.1 0.1v2.9h3.1q2-0.2 3-1.9zm-6.7-8.2l0.3 0.1v0.1h-0.5l-0.2-0.2 0.1-0.3h0.1l0.2 0.1zm0.2 1.4l0.4-0.5-0.1 0.6zm0.5-1.8l0.4 0.1q0 0.1-0.2 0.3-0.2 0.2-0.3 0.2-0.1 0 0-0.2 0.1-0.3 0.1-0.3zm0.1 0.6v0.2h-0.2q0-0.2 0.2-0.2zm26.5 8.5q0 1.6-1 2.9-0.9 1.2-2.5 2l-1.3-0.2 0.3 0.2q0 0.3-0.1 0.4-0.5 0.2-1 0.3-0.2 0-0.4 0-3.6 0.5-7.1-1.9v-2.8l0.9 0.2-0.2-0.6 1 0.9-0.8-1.6 0.6 0.2q2.2 1.7 4.3 1.7 2.3 0 2.6-1.5 0.2-1-1.2-1.7l-2.4-0.6q-2.3-0.7-3.4-1.5-2.1-1.5-2.1-4.2 0-1.9 1.3-3.4 0.1-0.1 0.4-0.4l1.4-0.2-0.3-0.1v-0.2l0.7-0.1h-1.1q0.6-0.3 0.8-0.5l1.1-0.1q-0.7-0.1-1-0.1 1.7-0.9 3.7-0.9 1.5 0 3.1 0.4 1.9 0.5 2.8 1.4l-0.2 0.3h0.3v0.2l-0.8 0.1h0.8v1l-1.8 0.1v0.3h0.8 1v3.4q-0.3-0.3-1.1-1-0.7-0.8-1.1-1.1-0.8-0.4-2.3-0.6-0.5-0.1-1-0.1-2.3 0-2.6 1.4-0.2 1.1 1.5 1.6 1.6 0.4 2.5 0.6 3 1 4.1 2.7-1 0-3 0.1-2 0-3.1 0h6q0 0.1 0 0.2l-0.1 0.1q0 0.1 0.2 0.1h0.2q0.6 1.2 0.6 2.6zm-13.1 0.7v-0.5-0.1l0.3 0.1q0 0.1 0.1 0.3 0.1 0.1 0.1 0.2zm0-2.1l0.3 0.3h-0.3zm0 0.7l0.4 0.1v0.4l0.2-0.2 0.1 0.1v0.1 0.2l-0.3-0.1v0.2l-0.4-0.3zm0.7 0.8v0.1l0.1 0.1-0.1-0.1 0.1-0.1h0.1l0.1 0.6-0.1-0.2h-0.2l-0.1-0.2h-0.1v-0.2h0.2v0.1zm0.6-12l-0.4 0.2q0.2-0.2 0.3-0.3zm0.2-0.1v-0.2h0.4v0.2z"/><path fill="#fff" d="m69.2 11.7l-0.6 0.1 0.3 0.2v0.8 5.6l-2.2 0.8h21.9v4.9l-1.7 1.1 0.2 0.5 0.8 0.2-0.2 0.7 0.2 0.4-2.5 0.4-0.3 0.3-1 0.1-0.5 0.6-1.2 0.4-4.6 0.4h-9.2l-7.6 0.6h7l0.8 0.5 0.1 2.3q0.1 2.6 0 4.2h19.7v5.9l-0.6 0.8 0.7 0.5v0.9l-9.3 0.6 9.2 0.6v0.8h-29.1l-1-0.3-0.3-45.3h28v1h1.4l0.7 0.5v0.7h0.4l-0.1 1.4-18.1 0.8h17.4l0.2 0.4h0.5l0.1 0.4h0.3v2.3l-0.4 0.4-0.7 0.5 0.7 0.3 0.1 0.8 0.4 0.2-0.1 0.7q-0.4 0.2-0.4 0.3h-18.7zm58.6 4.1q0 5.3-2.2 9.7l-20 1.1h7.9q3.4 0 10.4-0.1l1.1 0.1q-2.7 4.2-7.9 5.8-4.2 1.2-13.3 1.2v13.3h-10.1l-1.2-1.5v-12.6h0.1l0.2-0.8-0.2-0.5h-0.1v-16.8l2.8-2.5-0.2 0.4 2.2 0.7-0.1-0.8h6.6v10h-1v0.4l0.5 1 1.2 0.3 0.5-0.6q5.4 0 7.6-0.6 3.3-1 3.9-4.2 0.5-2.5-0.3-4.1l0.2-0.2-0.2-0.8-0.7-0.6 0.5 0.2h0.3l-0.4-0.6-2.1-1.3-1.4 1q-1.8-0.4-8.6-0.3v0.4l-6.6-0.4-0.5-0.6 1.1-0.5-4.5-0.8 0.7-0.5-1.5-0.3v-5.1l0.2 0.1v-2.7q2.3 0 4-0.4h11.6q8 0 9.7 0.5 3.3 1 5.8 3.3-1 0.3-1.4 0.7l2-0.1q3.4 3.9 3.4 10.1zm-34.1-14.5q-0.7 0.2-1.2 0.3v-0.3zm-0.4 8.5q0 0.2-0.1 0.6-0.1 0.4-0.1 0.6h0.5l-0.9 0.9-0.2-2.3 0.8 0.1zm-0.3 2.9v0.3l-0.3-0.1 0.3-0.3zm-0.2 0.6l1-1.3v0.1l0.2 0.2q0 1-1.2 1zm0.3-1.6h0.5q0 0.4-0.3 0.4-0.1 0-0.2 0zm0.8-0.7l-0.3-0.4h0.1l0.5 0.4zm3 0.1l-1.2 0.4 0.6 0.2-0.1 0.6-0.3 0.1-0.3-0.3-1 0.1 0.4-1.5 1.1 0.2 0.8 0.2zm6.3 12q0.3 0 0.6 0.1l0.2 0.1 0.1 0.5q-0.6 0-0.6 0-0.3-0.1-0.3-0.6zm0.6-0.4v0.4l-0.3-0.3zm10.4-10.8q0.5 0 0.5 0.6h-1.2q0.1-0.6 0.7-0.6zm10.8 14h0.4l-0.2 0.6-2.3-0.5 2.1-0.1zm10.6-8.4q0 0.2 1.8 0.2l3.5-0.4 0.8 3.8h0.1v15.1h-4.1l4.1 0.8v0.6l-0.9 0.1 0.2 0.2 0.7 0.6v0.3l-0.3 0.4-2.4 0.1h2.2l0.5 0.1v7.6h-6.1q-0.1-2.7-1.9-2.7l0.9 1.2 0.2 1.5h-1.1l-2.8-3.6-0.3-0.2v-13.3l0.7-0.2-0.7-1.6v-24l0.6-0.5 1.1 1.4 0.3-0.3-0.3-1.5 0.7-0.2q0-1.3-0.7-1.6h9.4v15.2q-6.2 0.4-6.2 0.9zm46.8 40.2h-0.4v0.2l-0.3 0.3-0.9 0.2h0.8v0.7h-0.4l-0.1 0.3-0.5 0.6h-6q-3.6 0-7.7-1.4-4.5-1.5-6.8-3-5.3-3.6-9.3-10.4-3.7-6.4-4.1-13.8-0.4-6.4 1.7-12.2 4.2-10.9 14-15.5 5.8-2.6 11.3-2.6h9.7l0.2 2.5-0.2 0.1-0.1-0.2-0.3-0.1h-0.3v-0.5l-0.1-0.4h-0.3l-0.2-1 0.1 1.6 0.1 0.4 0.4 0.2 0.3 0.4h0.2l0.3 0.1v21.4h-1.1v-0.2l-0.9-1.6v-0.4l-0.3-0.2-0.1-0.3-0.7-0.9 0.5 1.1v1.1l0.4 0.1h0.4v0.8q0.3 0.1 0.3 0.3v0.2h-10.2v-11.6q-4-0.1-7.8 4.5-1.8 2.1-2.7 5.1-0.9 3-0.8 5.8l-0.2 0.4-0.3 0.1-0.2 0.3-0.3 0.1-0.1-0.3-0.3 0.2-0.2 0.3-11.7 0.9 12.4-0.2 0.4 0.4v0.3l-1.2 0.9 1.3-0.7h0.4v0.4l-0.2 0.4-2 0.4 1.8-0.1v0.3l-0.8 0.3-2.3 0.1 1.8 0.1-0.1 0.3h-0.5l-0.5 0.7 0.7-0.5h0.3l0.2 0.4v-0.3h0.5l0.1 0.5 0.1-0.3h0.5v0.7l0.2-0.6 0.7 0.1 0.2 0.1v0.2l-0.4 0.3h0.6v0.3l-1.7 0.2h1.8v0.3l-0.3 0.2-0.5 0.2v0.2l0.4-0.1h0.3l0.1-0.2h0.4v0.5h-0.3l0.1 0.2h-0.3v0.3h-0.5v0.4l-2.4 0.3h2.5l0.2-0.2 0.2-0.2 0.1 0.3h0.4v-0.6l0.5 0.1q3.3 4.4 6.5 6.6 1.6 0.8 3.3 1.6 1.6 0.8 4.5 1l7.3 0.6v3.5l-1 0.8h-0.9l-0.1 0.2-0.6 0.1-0.3 0.3-0.5 0.2-0.4 0.4 0.1 0.7h-0.3v0.1l-0.8 0.1v0.5l1.6-0.1 0.1 0.2h0.6v0.8l-0.5 0.2-1.7 0.3-0.5 0.6h-0.4l-0.1-0.3-0.4-0.1-0.2 0.3-0.7 0.1 1.2 0.2v0.3h0.5l-0.5 0.8 0.8-0.8 0.4-0.2v0.2l-0.2 0.6h0.4v-0.2l0.3-0.2v-0.2h0.7v-0.2l0.8-0.1 0.3-0.2 0.2-0.2 0.4 0.2v0.3h-0.4l0.1 0.3-1.4 0.9 1.3-0.6h0.5zm1.6-10.1l-0.6-0.2-0.1-0.2 0.3 0.1h0.2zm-0.6 8.3l-0.4-0.1v0.2l-1.3 0.1v-0.5h0.4v-0.3h0.3l-0.3-0.1-0.1-0.6h0.2l0.2-0.2h0.4v-0.7l0.9-0.1v0.3h0.3v1.5l-0.3 0.1 0.1 0.1 0.2 0.3-0.4 0.2zm0.5 2.5v0.3l-0.1 0.7h-0.6v0.2h-0.8l-0.1-0.2-0.1-0.1 0.3-0.2 0.1-0.3 0.2-0.1v-0.4l0.3 0.1 0.2-0.3h0.6q0.1 0 0.1 0.1 0 0-0.1 0.2z"/><path fill="#fff" d="m9.3 6.6c-0.3-0.9 0.3-1.9 1.2-2.1q0 0 0 0l6.8-1.8c0.9-0.3 1.9 0.3 2.2 1.2q0 0.1 0 0.1c2.3-0.2 4.7-0.4 7.2-0.4 2.5 0 5 0.2 7.4 0.5 0.2-1 1.1-1.6 2-1.5q0.1 0.1 0.2 0.1l6.8 1.8c0.9 0.2 1.4 1.2 1.2 2.1q-0.1 0.3-0.2 0.5 0.8 0.4 1.3 1c1.5 1.4 2.8 3.7 3.9 6.2 1.1 2.6 2.1 5.6 2.8 8.7 0.7 3 1.2 6.2 1.3 9.1 0.1 2.9-0.2 5.6-1.2 7.8-0.9 1.9-2.9 3.1-5 2.9-2.3-0.3-4-1.4-5.4-2.7-0.8-0.8-1.7-1.9-2.5-2.9q-0.7-0.8-1.3-1.5c-2.6-2.8-5.6-5.3-11.3-5.3-5.8 0-8.8 2.5-11.4 5.3q-0.6 0.7-1.3 1.5c-0.8 1-1.7 2-2.5 2.9-1.4 1.3-3.1 2.4-5.4 2.7-2.1 0.2-4.1-1-5-2.9-1-2.2-1.3-4.9-1.2-7.8 0.1-2.9 0.6-6.1 1.3-9.1 0.7-3.1 1.7-6.1 2.8-8.7 1.1-2.5 2.4-4.8 3.9-6.2q0.7-0.7 1.5-1.2l-0.1-0.3zm7.1 1.5c-3 0.6-5.1 1.5-6.1 2.5-0.9 0.9-2 2.7-3.1 5.1q-1.6 3.9-2.6 8.1-1 4.1-1.2 8.4c0 2.7 0.2 4.8 0.9 6.2 0.2 0.6 0.9 1 1.5 0.9 1.1-0.1 2.1-0.7 3.2-1.8 0.8-0.7 1.4-1.5 2.2-2.3q0.7-0.9 1.5-1.8c2.9-3.2 6.9-6.5 14-6.5 7 0 11 3.3 13.9 6.5q0.8 0.9 1.5 1.8c0.8 0.8 1.4 1.6 2.2 2.3 1.1 1.1 2.1 1.7 3.2 1.8 0.7 0.1 1.3-0.3 1.5-0.9 0.7-1.4 0.9-3.5 0.9-6.2q-0.2-4.3-1.2-8.4-1-4.2-2.6-8.1c-1.1-2.4-2.2-4.2-3.1-5.1-1-1-3.1-1.9-6.1-2.5-3-0.6-6.6-1-10.2-1-3.7 0-7.3 0.4-10.3 1zm26 11.8c0 0.9-0.7 1.7-1.7 1.7-1 0-1.8-0.8-1.8-1.7 0-1 0.8-1.8 1.8-1.8 1 0 1.7 0.8 1.7 1.8zm-7 3.5c0-1 0.8-1.8 1.8-1.8 0.9 0 1.7 0.8 1.7 1.8 0 0.9-0.8 1.7-1.7 1.7-1 0-1.8-0.8-1.8-1.7zm-21-8.8h3.5v3.5h3.5v3.5h-3.5v3.5h-3.5v-3.5h-3.5v-3.5h3.5zm24.5 1.8c0 0.9-0.8 1.7-1.7 1.7-1 0-1.8-0.8-1.8-1.7 0-1 0.8-1.8 1.8-1.8 0.9 0 1.7 0.8 1.7 1.8zm-7 3.5c0-1 0.8-1.8 1.8-1.8 0.9 0 1.7 0.8 1.7 1.8 0 0.9-0.8 1.7-1.7 1.7-1 0-1.8-0.8-1.8-1.7z"/>
  </symbol>
</svg>